HIERARCHY
ROOT Hips
{
	OFFSET -3.958830 18.904000 13.208200
	CHANNELS 6 Xposition Yposition Zposition Zrotation Yrotation Xrotation 
	JOINT LHipJoint
	{
		OFFSET 0.000000 0.000000 0.000000
		CHANNELS 3 Zrotation Yrotation Xrotation
		JOINT LeftUpLeg
		{
			OFFSET 1.800000 -1.400000 0.085000
			CHANNELS 3 Zrotation Yrotation Xrotation
			JOINT LeftLeg
			{
				OFFSET 2.215000 -6.000000 0.000000
				CHANNELS 3 Zrotation Yrotation Xrotation
				JOINT LeftFoot
				{
					OFFSET 2.500000 -6.900000 0.000000
					CHANNELS 3 Zrotation Yrotation Xrotation
					JOINT LeftToeBase
					{
						OFFSET 0.200000 -0.500000 1.950000
						CHANNELS 3 Zrotation Yrotation Xrotation
						End Site
						{
							OFFSET 0.000000 0.000000 0.000000
						}
					}
				}
			}
		}
	}
	JOINT RHipJoint
	{
		OFFSET 0.000000 0.000000 0.000000
		CHANNELS 3 Zrotation Yrotation Xrotation
		JOINT RightUpLeg
		{
			OFFSET -1.800000 -1.400000 0.085000
			CHANNELS 3 Zrotation Yrotation Xrotation
			JOINT RightLeg
			{
				OFFSET -2.215000 -6.000000 0.000000
				CHANNELS 3 Zrotation Yrotation Xrotation
				JOINT RightFoot
				{
					OFFSET -2.500000 -6.900000 0.000000
					CHANNELS 3 Zrotation Yrotation Xrotation
					JOINT RightToeBase
					{
						OFFSET -0.200000 -0.500000 1.950000
						CHANNELS 3 Zrotation Yrotation Xrotation
						End Site
						{
							OFFSET 0.000000 0.000000 0.000000
						}
					}
				}
			}
		}
	}
	JOINT LowerBack
	{
		OFFSET 0.000000 0.000000 0.000000
		CHANNELS 3 Zrotation Yrotation Xrotation
		JOINT Spine
		{
			OFFSET -0.087000 1.940000 -0.288900
			CHANNELS 3 Zrotation Yrotation Xrotation
			JOINT Spine1
			{
				OFFSET 0.000000 1.950000 0.060000
				CHANNELS 3 Zrotation Yrotation Xrotation
				JOINT Neck
				{
					OFFSET 0.000000 0.000000 0.000000
					CHANNELS 3 Zrotation Yrotation Xrotation
					JOINT Neck1
					{
						OFFSET 0.000000 1.600000 0.340000
						CHANNELS 3 Zrotation Yrotation Xrotation
						JOINT Head
						{
							OFFSET 0.000000 1.667000 -0.240000
							CHANNELS 3 Zrotation Yrotation Xrotation
							End Site
							{
								OFFSET 0.000000 0.000000 0.000000
							}
						}
					}
				}
				JOINT LeftShoulder
				{
					OFFSET 0.000000 0.000000 0.000000
					CHANNELS 3 Zrotation Yrotation Xrotation
					JOINT LeftArm
					{
						OFFSET 2.700000 1.550000 -0.730000
						CHANNELS 3 Zrotation Yrotation Xrotation
						JOINT LeftForeArm
						{
							OFFSET 5.450000 0.000000 0.000000
							CHANNELS 3 Zrotation Yrotation Xrotation
							JOINT LeftHand
							{
								OFFSET 3.450000 0.000000 0.000000
								CHANNELS 3 Zrotation Yrotation Xrotation
								JOINT LeftHandIndex1
								{
									OFFSET 0.750000 0.000000 0.000000
									CHANNELS 3 Zrotation Yrotation Xrotation
									End Site
									{
										OFFSET 0.000000 0.000000 0.000000
									}
								}
							}
						}
					}
				}
				JOINT RightShoulder
				{
					OFFSET 0.000000 0.000000 0.000000
					CHANNELS 3 Zrotation Yrotation Xrotation
					JOINT RightArm
					{
						OFFSET -2.700000 1.550000 -0.730000
						CHANNELS 3 Zrotation Yrotation Xrotation
						JOINT RightForeArm
						{
							OFFSET -5.450000 0.000000 0.000000
							CHANNELS 3 Zrotation Yrotation Xrotation
							JOINT RightHand
							{
								OFFSET -3.450000 0.000000 0.000000
								CHANNELS 3 Zrotation Yrotation Xrotation
								JOINT RightHandIndex1
								{
									OFFSET -0.750000 0.000000 0.000000
									CHANNELS 3 Zrotation Yrotation Xrotation
									End Site
									{
										OFFSET 0.000000 0.000000 0.000000
									}
								}
							}
						}
					}
				}
			}
		}
	}
}
MOTION
Frames: 14
Frame Time: 0.016667
-1.050780 13.980740 -0.817090 -52.540769 -12.101822 -18.567708 -15.362570 13.319616 4.174651 7.491458 -3.140447 -23.617720 -11.602874 21.140780 57.792938 1.295455 12.129519 0.130015 0.245650 -0.178160 0.723620 18.031795 -10.294127 2.702496 0.760289 7.485130 5.138376 -4.674618 -8.953717 69.775746 -2.233785 -10.323700 0.826723 -0.333530 -0.397110 0.241690 -2.785022 -3.010189 -8.540499 -4.989088 8.518628 59.437885 -5.775856 12.377859 8.924232 4.979534 2.082181 -24.890837 -1.894483 8.059402 58.380745 5.561760 10.872060 -17.367990 -17.732549 -28.423704 12.479734 -13.367703 5.771110 -2.506867 9.676251 -4.586386 -0.881692 -3.421558 2.704540 1.114290 -0.417060 0.531600 -0.256380 9.466185 33.705758 16.480976 5.377750 -10.523223 -10.928486 -7.227433 28.494461 0.070501 2.072929 -1.212180 -0.120960 -0.093120 0.023510 -0.446080 
-1.059870 13.969530 -0.779810 -51.771619 -11.332402 -18.710249 -15.390296 13.295913 4.105586 5.875266 -3.514662 -24.044509 -9.511756 20.675329 59.784129 1.332665 12.244071 0.130947 0.276870 -0.135700 0.731040 18.024248 -10.206203 2.737840 -0.606854 8.755944 2.688070 -2.592867 -11.211375 73.292365 -2.366964 -10.949621 0.656669 -0.298590 -0.361600 0.237090 -2.754336 -3.052417 -8.550577 -5.742485 8.865213 57.733097 -5.285290 11.848941 10.480735 4.528416 2.424051 -24.330918 -0.493431 8.054237 57.499390 6.351930 11.415980 -16.863650 -17.170521 -28.379767 12.530829 -14.002398 5.474188 -2.512693 10.046762 -4.275892 -0.898221 -3.446252 2.717983 1.089720 -0.390720 0.516550 -0.221250 9.258564 33.037110 16.305684 4.749667 -9.699374 -10.357785 -7.243772 27.871557 -0.040102 2.077419 -1.210243 -0.127650 -0.069240 -0.002800 -0.435680 
-1.087820 13.953750 -0.674110 -49.828221 -8.720232 -19.133219 -15.582466 13.250829 3.906364 1.720146 -4.398752 -24.253355 -5.193340 19.510999 63.797624 1.402910 12.526392 0.116076 0.280520 -0.080790 0.673700 17.928376 -9.596408 2.972831 -4.757876 11.477570 -3.065722 4.382393 -19.150678 79.850812 -2.719035 -12.736838 0.178525 -0.218380 -0.242300 0.223730 -2.416346 -3.775163 -8.610294 -8.622123 10.368676 53.355872 -3.038457 10.926481 15.404903 3.926585 3.428820 -22.524214 2.918195 7.148458 52.998171 5.527410 11.730590 -16.454290 -15.297548 -27.887973 12.399790 -14.628405 3.352889 -1.764122 8.817339 -3.227074 -0.824643 -3.563468 2.682193 0.984240 -0.290830 0.434760 -0.177310 7.307340 31.273330 15.854123 3.588306 -8.494222 -9.246674 -7.574924 26.754233 -0.359922 2.063784 -1.190215 -0.156560 0.004610 0.008430 -0.393400 
-1.086180 13.953930 -0.535890 -48.960419 -5.882048 -20.630224 -15.814937 13.151814 3.571440 -1.838139 -4.763857 -24.210877 1.047943 17.196890 69.232759 1.484583 12.843107 0.075610 0.334200 0.002650 0.677070 17.825562 -8.571126 3.644216 -8.830949 14.191886 -8.542329 13.345441 -30.578063 85.209734 -3.303871 -15.034297 -0.362885 -0.137960 -0.187270 0.220440 -2.001332 -4.837215 -8.807066 -10.885239 11.398974 50.694439 -0.855441 9.700893 18.682475 4.194762 4.586808 -21.656726 5.929944 6.370112 52.119860 2.915520 12.114460 -14.781720 -14.390702 -27.768138 12.468405 -16.365101 3.189025 -1.788153 8.907068 -3.420375 -0.851423 -3.610614 2.695153 0.907510 -0.217910 0.391980 -0.126940 5.071447 30.262679 15.501604 2.450185 -7.311157 -8.529540 -7.662459 26.205158 -0.511970 2.031517 -1.201545 -0.158710 0.047960 -0.018040 -0.372410 
-1.034000 13.915120 -0.388090 -49.685235 -4.300639 -23.516830 -15.859509 12.872696 3.195306 -4.360682 -4.542934 -23.640585 7.920257 13.972012 74.923646 1.497424 13.225730 -0.047480 0.377530 0.035680 0.704280 17.860620 -7.712984 4.591928 -13.149805 16.455306 -12.443905 25.418949 -43.634540 85.157188 -3.778738 -16.556228 -0.732414 -0.074440 -0.185620 0.241510 -2.007554 -5.185517 -9.083362 -9.290027 10.129054 51.425297 -1.820853 8.354571 20.031349 4.901947 4.928183 -21.475873 6.814313 6.531160 53.368205 2.071620 12.203830 -14.949930 -14.676883 -27.906841 12.455591 -17.297606 3.917372 -1.812400 8.792687 -3.343152 -0.931400 -3.641262 2.689403 0.934430 -0.205510 0.391500 -0.132830 3.564166 29.844342 15.063032 1.179715 -5.735804 -8.360236 -8.819104 25.455877 -0.700813 2.004555 -1.187691 -0.183770 0.066760 0.003600 -0.397080 
-1.018940 13.857480 -0.241580 -52.043138 -2.173833 -25.518435 -15.880757 12.525556 3.199812 -4.984330 -5.644285 -25.560765 12.421048 11.681115 81.129496 1.658422 13.911013 -0.207115 0.459220 0.160690 0.698470 17.895176 -7.202814 5.071233 -16.189425 15.961257 -16.719364 42.759327 -53.149525 74.404174 -3.721599 -15.865688 -0.551649 0.032510 -0.144110 0.218280 -2.041002 -5.278928 -9.295320 -6.072444 7.445970 51.214811 -2.786601 6.788289 20.573644 5.710503 4.874209 -19.575008 7.034765 6.938714 52.230685 2.178010 11.701310 -14.192710 -15.655570 -26.416498 11.779889 -17.067220 2.587330 -1.221604 8.703711 -2.478409 -0.886970 -3.674210 2.722519 0.862820 -0.166820 0.351530 -0.071710 2.750450 27.648232 13.371494 -1.327287 -2.247836 -7.535822 -9.113031 25.494796 -0.854624 2.012095 -1.169387 -0.180950 0.109680 -0.037750 -0.365610 
-0.987260 13.821280 -0.155510 -54.144424 2.015003 -27.803929 -15.872854 12.419206 3.540260 -5.244285 -7.891699 -26.620928 13.465160 10.263276 83.172605 1.722578 14.098783 -0.210672 0.426730 0.158160 0.648540 17.888442 -7.274396 4.869365 -20.163499 12.239479 -20.061396 64.745462 -55.891303 55.203804 -3.242421 -13.579955 0.002693 0.041840 -0.080060 0.191900 -2.056425 -5.388030 -9.368826 -3.882822 4.499366 52.959558 -3.042450 4.149783 18.915561 6.213595 5.149418 -18.024610 7.814404 6.786892 52.403953 1.494630 11.496870 -13.073180 -17.493646 -25.827068 11.801880 -16.297841 2.419816 -0.885443 8.304275 -1.923589 -0.817830 -3.700271 2.689977 0.812260 -0.124450 0.315730 -0.048340 3.723425 25.941619 11.089213 -6.424452 0.174432 -7.556869 -8.015569 27.879945 -0.484392 2.022844 -1.096436 -0.199770 0.165040 -0.027800 -0.333510 
-0.959970 13.754810 -0.041880 -55.538014 1.844265 -30.502672 -15.831643 12.449274 3.611652 -4.714686 -7.989232 -27.636913 14.517327 9.795730 84.905901 1.789279 14.299146 -0.240504 0.456090 0.179700 0.657530 17.910111 -7.429648 4.744377 -21.249331 11.204862 -22.545878 79.021374 -52.273974 41.983937 -3.021853 -12.441643 0.307020 0.052470 -0.089700 0.173670 -2.157273 -5.204720 -9.385775 -1.292165 2.969358 54.409031 -3.442161 3.772600 16.867769 6.630486 5.289956 -17.078344 8.232220 5.935911 53.687260 1.285770 10.593800 -12.356550 -19.277272 -25.428180 11.938864 -17.177073 2.562866 -0.754039 8.276465 -1.467449 -0.750802 -3.630129 2.725852 0.819480 -0.140500 0.318270 -0.011530 4.857338 25.580269 9.413340 -10.461507 2.011766 -8.596351 -11.193428 29.591664 -1.104074 2.067083 -1.134389 -0.202530 0.169650 -0.068450 -0.327020 
-0.961050 13.668600 0.090480 -53.942127 -0.862221 -32.171455 -15.859278 12.381338 3.492100 -4.434519 -6.691795 -29.573428 12.985667 12.456383 84.651585 1.851445 14.540611 -0.301469 0.471350 0.195380 0.652720 17.915968 -7.219253 4.953310 -24.440003 12.030912 -26.473691 88.690101 -49.150753 34.933978 -2.945408 -12.017927 0.421293 0.065530 -0.057710 0.175100 -2.125903 -5.146663 -9.459014 -1.635994 4.615048 53.638646 -2.829805 4.951941 15.603636 6.586206 4.817917 -15.708359 7.781233 6.328367 53.856495 2.623960 10.021600 -11.416460 -20.131102 -23.944631 11.610537 -19.577168 2.775964 -0.947645 9.042775 -2.295956 -0.808134 -3.611489 2.790039 0.784260 -0.132100 0.298150 0.003870 5.930718 25.472531 7.715409 -13.542141 6.057679 -9.345454 -14.401813 29.903882 -1.952872 2.137265 -1.134915 -0.190960 0.180000 -0.073390 -0.303100 
-0.906320 13.559700 0.268950 -53.930293 -4.411139 -34.926168 -15.778511 12.180538 3.465638 -2.991730 -5.667633 -32.862249 11.930870 14.090023 84.560952 1.863149 14.740067 -0.374735 0.460950 0.190030 0.603360 18.004304 -7.188455 5.110268 -24.881209 12.971292 -26.977276 98.225290 -42.906694 26.460460 -2.852037 -11.544862 0.556379 0.065470 -0.012620 0.206470 -2.382761 -4.586524 -9.550456 2.143421 3.231929 53.762833 -4.989636 5.682543 15.633130 7.756262 4.050799 -15.375682 6.770930 7.106380 55.277344 2.259000 9.642110 -9.418550 -21.180540 -23.539991 11.698743 -22.890273 3.762168 -1.585530 12.107517 -2.353697 -0.883288 -3.645292 2.865254 0.741100 -0.089990 0.273880 0.022600 4.685935 26.171968 6.589225 -14.385758 9.531443 -10.278195 -16.534221 31.031088 -2.640131 2.125826 -1.175981 -0.171220 0.172340 -0.050870 -0.272930 
-0.840960 13.482740 0.411970 -53.544741 -4.837652 -37.822278 -15.834522 12.118845 3.453323 -6.082782 -6.174347 -34.481062 15.218591 9.842457 80.917784 1.577301 13.808006 -0.151832 0.472620 0.194360 0.604970 17.984245 -6.860136 5.351168 -27.245238 12.405117 -24.426724 106.024563 -34.362545 18.255406 -2.703639 -10.764571 0.730380 0.090810 -0.003820 0.213510 -2.287410 -4.888958 -9.639976 2.959689 2.912120 54.738191 -4.791868 5.591432 16.490671 8.670982 3.293772 -15.063647 5.392837 7.339097 55.141084 2.102380 8.445300 -10.088280 -21.628785 -23.785473 11.989330 -25.872424 4.060999 -1.948115 13.835100 -2.308703 -0.979993 -3.637122 2.897539 0.749650 -0.096870 0.268570 0.016090 3.371877 27.595707 5.817148 -16.174201 11.539933 -11.637364 -19.461734 31.332321 -3.537572 2.129947 -1.194291 -0.182530 0.191530 -0.030740 -0.270780 
-0.796540 13.404270 0.529770 -53.112323 -6.244459 -39.929075 -15.727971 11.818531 3.397255 -6.222675 -6.010860 -37.301459 16.935915 6.870653 74.972402 1.266133 12.622511 0.159358 0.471810 0.195680 0.553150 18.107834 -6.747726 5.749086 -26.254684 12.685199 -22.707276 111.319697 -26.099954 12.427089 -2.531270 -9.931180 0.973445 0.090900 0.024620 0.190380 -2.626424 -4.327263 -9.739061 5.877636 1.265504 55.546437 -6.893029 6.020934 16.832552 9.112795 2.299963 -15.928743 3.215329 7.870288 55.632106 4.494490 6.796180 -8.376910 -21.608739 -25.193577 12.838985 -27.018832 4.619979 -1.869995 13.996082 -1.235296 -0.819172 -3.606443 2.941596 0.733520 -0.105790 0.240080 0.045070 2.532611 29.950394 5.798615 -17.373694 11.496330 -12.902100 -22.142923 30.986504 -4.295108 2.178075 -1.291499 -0.181380 0.197190 -0.033030 -0.241070 
-0.731270 13.385470 0.668440 -50.821433 -7.562782 -43.350853 -15.723036 12.167566 3.019285 -8.529461 -4.153648 -35.668640 19.152784 3.805817 63.615779 0.758346 10.549211 0.750167 0.478390 0.208760 0.571640 18.060539 -6.812215 5.935967 -24.164482 14.350066 -18.024380 110.786647 -21.802992 11.198408 -2.431787 -9.458172 1.071447 0.102240 0.024610 0.185490 -2.554304 -4.527872 -9.573187 5.781639 2.617639 56.444821 -6.675674 7.492767 18.622870 9.528345 2.167610 -16.656246 2.402858 7.525092 57.473579 4.787140 5.336790 -9.344690 -21.760147 -27.249704 13.891903 -27.424860 3.740449 -0.750318 11.312042 1.553013 -0.514499 -3.606897 2.857335 0.751240 -0.124310 0.264060 0.033490 1.699784 33.296843 5.556590 -17.792476 11.160647 -15.761404 -26.907183 32.648283 -6.243798 2.235620 -1.358719 -0.183860 0.242710 -0.024620 -0.232350 
-0.725130 13.355110 0.828020 -45.903360 -5.768178 -45.361436 -16.025083 12.130468 3.169163 -16.201142 -4.709394 -36.284426 24.488880 0.561070 53.542641 0.439471 8.952461 1.254003 0.478890 0.234720 0.513820 17.856885 -6.142313 6.037688 -27.386643 14.883757 -16.721286 110.747273 -18.725368 10.175914 -2.320362 -9.200869 1.147597 0.148400 0.076570 0.196290 -1.826756 -5.632653 -9.648101 -1.239924 8.266185 54.079015 -2.944029 9.200106 20.603727 9.651416 2.357593 -15.915397 3.729161 7.571082 56.356277 4.395390 5.457760 -8.521560 -21.169122 -26.883589 14.065459 -29.613990 4.004805 -1.274777 12.538709 -0.573904 -0.755423 -3.629127 2.933467 0.692930 -0.066480 0.211070 0.051060 0.638216 35.265099 4.735875 -17.955874 14.253320 -17.275422 -30.622893 31.705579 -7.998099 2.273650 -1.430030 -0.189590 0.242840 -0.001430 -0.213220 
